<?xml version="1.0" encoding="utf-8"?>
<!-- Generator: Adobe Illustrator 24.0.0, SVG Export Plug-In . SVG Version: 6.00 Build 0)  -->
<svg version="1.1" id="Layer_1" xmlns="http://www.w3.org/2000/svg" xmlns:xlink="http://www.w3.org/1999/xlink" x="0px" y="0px"
	 viewBox="0 0 256 256" enable-background="new 0 0 256 256" xml:space="preserve">
<g>
	<g>
		<path fill="#CECECE" d="M32.035,214.631c-7.535,0-13.665-6.13-13.665-13.665V77.19c0-7.535,6.13-13.665,13.665-13.665h191.931
			c7.535,0,13.665,6.13,13.665,13.665v123.776c0,7.535-6.13,13.665-13.665,13.665H32.035z"/>
		<g>
			<path fill="#E2E2E2" d="M223.965,63.525h-14.667c7.534,0,13.665,6.13,13.665,13.665v123.776c0,7.534-6.13,13.665-13.665,13.665
				h14.667c7.535,0,13.665-6.13,13.665-13.665V77.19C237.63,69.655,231.5,63.525,223.965,63.525z"/>
		</g>
		<g>
			<path fill="#AFAFAF" d="M32.035,63.525h14.667c-7.534,0-13.665,6.13-13.665,13.665v123.776c0,7.534,6.13,13.665,13.665,13.665
				H32.035c-7.535,0-13.665-6.13-13.665-13.665V77.19C18.37,69.655,24.5,63.525,32.035,63.525z"/>
		</g>
		<path fill="#63BCE7" d="M229.221,77.214v123.728c0,2.916-2.364,5.28-5.28,5.28H32.059c-2.916,0-5.28-2.364-5.28-5.28V77.214
			c0-2.916,2.364-5.28,5.28-5.28h191.882C226.857,71.934,229.221,74.298,229.221,77.214z"/>
		<g>
			<path fill="#63E2E7" d="M223.941,71.934h-14.667c2.916,0,5.28,2.364,5.28,5.28v123.728c0,2.916-2.364,5.28-5.28,5.28h14.667
				c2.916,0,5.28-2.364,5.28-5.28V77.214C229.221,74.298,226.857,71.934,223.941,71.934z"/>
		</g>
		<g>
			<path fill="#6377E7" d="M32.059,71.934h14.667c-2.916,0-5.28,2.364-5.28,5.28v123.728c0,2.916,2.364,5.28,5.28,5.28H32.059
				c-2.916,0-5.28-2.364-5.28-5.28V77.214C26.779,74.298,29.143,71.934,32.059,71.934z"/>
		</g>
		<path fill="#CECECE" d="M128,214.631H8.667l3.053,7.024c2.751,6.329,8.995,10.423,15.896,10.423H128h100.385
			c6.901,0,13.145-4.094,15.896-10.423l3.053-7.024H128z"/>
		<g>
			<path fill="#E2E2E2" d="M232.667,214.631l-3.053,7.024c-2.751,6.329-8.995,10.423-15.896,10.423h14.667
				c6.901,0,13.145-4.094,15.896-10.423l3.053-7.024H232.667z"/>
		</g>
		<g>
			<path fill="#AFAFAF" d="M23.333,214.631l3.053,7.024c2.751,6.329,8.995,10.423,15.896,10.423H27.615
				c-6.901,0-13.145-4.094-15.896-10.423l-3.053-7.024H23.333z"/>
		</g>
		<path fill="#707070" d="M82.442,214.631l4.22,5.388c1.649,2.106,4.175,3.336,6.85,3.336h68.975c2.675,0,5.201-1.23,6.85-3.336
			l4.221-5.388H82.442z"/>
		<g>
			<circle fill="#F8AF23" cx="162.011" cy="47.168" r="14.552"/>
			<polygon fill="#F8AF23" points="153.458,81.372 119.421,63.511 119.421,30.81 153.458,12.949 			"/>
			<rect x="153.458" y="12.949" fill="#F46275" width="8.553" height="68.424"/>
			<rect x="90.795" y="30.81" fill="#CECECE" width="28.626" height="32.714"/>
			<rect x="79.436" y="38.979" fill="#F46275" width="11.359" height="16.364"/>
			<rect x="98.794" y="63.525" fill="#CECECE" width="12.627" height="25.591"/>
		</g>
	</g>
	<g>
		<g>
			<g>
				<rect x="48.62" y="100.414" fill="#F46275" width="92.757" height="74.862"/>
				<path fill="#F8AF23" d="M141.377,175.276v-18.074c-9.534-8.887-25.887-14.753-44.471-14.753
					c-21.374,0-39.798,7.758-48.286,18.951v13.877H141.377z"/>
				<path fill="#63BCE7" d="M75.043,146.641c0,3.566-2.891,6.458-6.458,6.458c-3.566,0-6.458-2.891-6.458-6.458
					s2.891-14.841,6.458-14.841C72.152,131.799,75.043,143.074,75.043,146.641z"/>
				<path fill="#63BCE7" d="M134.961,135.505c0,4.245-3.441,7.686-7.686,7.686c-4.245,0-7.686-3.441-7.686-7.686
					s3.441-17.663,7.686-17.663C131.52,117.842,134.961,131.26,134.961,135.505z"/>
			</g>
			<circle fill="#F8AF23" cx="94.998" cy="121.969" r="8.338"/>
		</g>
		<g>
			<rect x="154.959" y="100.414" fill="#F8AF23" width="52.421" height="32.741"/>
			<rect x="154.959" y="142.535" fill="#CECECE" width="52.421" height="32.741"/>
			<g>
				<path fill="#3F3679" d="M245.656,222.253l3.053-7.023c0.202-0.464,0.156-0.998-0.121-1.421
					c-0.277-0.422-0.749-0.677-1.254-0.677h-14.352c3.722-2.766,6.149-7.182,6.149-12.165V77.19c0-8.362-6.803-15.165-15.165-15.165
					h-55.9c5.857-2.396,9.999-8.149,9.999-14.858c0-8.345-6.403-15.217-14.552-15.976V12.949c0-0.829-0.671-1.5-1.5-1.5h-8.553
					c-0.253,0-0.488,0.068-0.697,0.179l0-0.007l-33.71,17.69H90.795c-0.829,0-1.5,0.671-1.5,1.5v6.668h-9.858
					c-0.829,0-1.5,0.671-1.5,1.5v16.364c0,0.829,0.671,1.5,1.5,1.5h9.858v5.183h-57.26c-8.362,0-15.165,6.803-15.165,15.165v123.776
					c0,4.983,2.427,9.399,6.149,12.165H8.667c-0.505,0-0.977,0.255-1.254,0.678c-0.277,0.422-0.323,0.957-0.121,1.42l3.053,7.023
					c1.517,3.491,4.013,6.351,7.08,8.325H9.32c-0.829,0-1.5,0.671-1.5,1.5s0.671,1.5,1.5,1.5h18.295h200.77h18.295
					c0.829,0,1.5-0.671,1.5-1.5s-0.671-1.5-1.5-1.5h-8.104C241.644,228.604,244.139,225.744,245.656,222.253z M175.063,47.167
					c0,6.689-5.06,12.212-11.552,12.959V34.208C170.004,34.956,175.063,40.478,175.063,47.167z M154.958,14.449h5.553v65.424h-5.553
					V14.449z M162.011,82.873c0.829,0,1.5-0.671,1.5-1.5v-7.938h60.43c2.084,0,3.78,1.696,3.78,3.78v123.728
					c0,2.084-1.696,3.78-3.78,3.78H32.059c-2.084,0-3.78-1.696-3.78-3.78V77.214c0-2.084,1.696-3.78,3.78-3.78h65.235v15.682
					c0,0.829,0.671,1.5,1.5,1.5h12.627c0.829,0,1.5-0.671,1.5-1.5V73.434h22.182l17.658,9.267c0.014,0.007,0.03,0.01,0.044,0.017
					c0.075,0.036,0.153,0.065,0.234,0.089c0.029,0.008,0.056,0.02,0.085,0.026c0.108,0.025,0.219,0.04,0.334,0.04H162.011z
					 M119.079,65.025l10.308,5.409h-16.465v-5.409H119.079z M100.294,65.025h9.627v22.591h-9.627V65.025z M151.958,78.892
					l-31.037-16.288V31.717l31.037-16.288V78.892z M92.295,32.311h25.626v29.714h-6.5H98.794h-6.5v-6.682V38.979V32.311z
					 M80.937,53.843V40.479h8.358v13.364H80.937z M19.87,200.966V77.19c0-6.708,5.457-12.165,12.165-12.165h59.271
					c0.002,0,0.003,0,0.005,0h5.984v5.409H32.059c-3.739,0-6.78,3.042-6.78,6.78v123.728c0,3.739,3.042,6.78,6.78,6.78h191.882
					c3.739,0,6.78-3.042,6.78-6.78V77.214c0-3.738-3.042-6.78-6.78-6.78h-60.43v-5.409h60.454c6.708,0,12.165,5.457,12.165,12.165
					v123.776c0,6.708-5.457,12.165-12.165,12.165h-50.407H82.442H32.035C25.327,213.131,19.87,207.674,19.87,200.966z
					 M170.478,216.131l-2.321,2.963c-1.375,1.754-3.441,2.76-5.669,2.76H93.513c-2.229,0-4.295-1.006-5.669-2.76l-2.321-2.963
					H170.478z M228.385,230.578H27.615c-4.787,0-9.22-2.157-12.18-5.724h29.14c0.829,0,1.5-0.671,1.5-1.5s-0.671-1.5-1.5-1.5H13.478
					c-0.132-0.263-0.264-0.526-0.382-0.798l-2.141-4.925h21.081h49.677l3.77,4.813c1.947,2.485,4.874,3.911,8.031,3.911h68.975
					c3.157,0,6.084-1.425,8.031-3.911l3.77-4.813h49.677h21.081l-2.141,4.925c-0.118,0.272-0.25,0.535-0.382,0.798h-31.099
					c-0.829,0-1.5,0.671-1.5,1.5s0.671,1.5,1.5,1.5h29.141C237.605,228.422,233.172,230.578,228.385,230.578z"/>
				<path fill="#3F3679" d="M65.22,221.854H54.845c-0.829,0-1.5,0.671-1.5,1.5s0.671,1.5,1.5,1.5H65.22c0.829,0,1.5-0.671,1.5-1.5
					S66.048,221.854,65.22,221.854z"/>
				<path fill="#3F3679" d="M201.155,221.854H190.78c-0.829,0-1.5,0.671-1.5,1.5s0.671,1.5,1.5,1.5h10.375
					c0.829,0,1.5-0.671,1.5-1.5S201.984,221.854,201.155,221.854z"/>
				<path fill="#3F3679" d="M27.323,241.551H9.32c-0.829,0-1.5,0.671-1.5,1.5s0.671,1.5,1.5,1.5h18.003c0.829,0,1.5-0.671,1.5-1.5
					S28.152,241.551,27.323,241.551z"/>
				<path fill="#3F3679" d="M246.68,241.551h-18.003c-0.829,0-1.5,0.671-1.5,1.5s0.671,1.5,1.5,1.5h18.003
					c0.829,0,1.5-0.671,1.5-1.5S247.509,241.551,246.68,241.551z"/>
				<path fill="#3F3679" d="M218.479,241.551H37.521c-0.829,0-1.5,0.671-1.5,1.5s0.671,1.5,1.5,1.5h180.959
					c0.829,0,1.5-0.671,1.5-1.5S219.308,241.551,218.479,241.551z"/>
				<path fill="#3F3679" d="M141.377,98.914H48.62c-0.829,0-1.5,0.671-1.5,1.5v74.862c0,0.829,0.671,1.5,1.5,1.5h92.757
					c0.829,0,1.5-0.671,1.5-1.5v-74.862C142.877,99.585,142.206,98.914,141.377,98.914z M139.877,101.914v52.046
					c-3.219-2.55-6.959-4.774-11.102-6.626v-2.777c4.352-0.72,7.686-4.499,7.686-9.052c0-3.236-3.084-19.164-9.186-19.164
					s-9.186,15.927-9.186,19.164c0,4.553,3.333,8.332,7.686,9.052v1.522c-8.536-3.306-18.492-5.13-28.869-5.13
					c-7.188,0-14.15,0.862-20.726,2.541c-0.89-5.01-3.421-13.191-7.594-13.191c-5.305,0-7.958,13.221-7.958,16.341
					c0,0.928,0.168,1.815,0.461,2.644c-4.289,2.323-8.014,5.07-10.969,8.1v-55.471H139.877z M127.275,129.016
					c-0.829,0-1.5,0.671-1.5,1.5v10.983c-2.687-0.673-4.686-3.101-4.686-5.994c0-6.6,4.344-16.164,6.186-16.164
					c2.525,0,6.186,11.351,6.186,16.164c0,2.893-1.999,5.321-4.686,5.994v-10.983C128.775,129.688,128.104,129.016,127.275,129.016z
					 M68.585,140.949c-0.829,0-1.5,0.671-1.5,1.5v8.892c-1.998-0.64-3.458-2.493-3.458-4.7c0-4.134,3.163-13.341,4.958-13.341
					s4.958,9.208,4.958,13.341c0,2.207-1.46,4.06-3.458,4.7v-8.892C70.085,141.62,69.414,140.949,68.585,140.949z M50.12,173.776
					v-11.845c2.982-3.796,7.275-7.251,12.486-10.058c1.145,1.307,2.707,2.238,4.48,2.578v7.881h-2.408c-0.829,0-1.5,0.671-1.5,1.5
					s0.671,1.5,1.5,1.5h7.816c0.829,0,1.5-0.671,1.5-1.5s-0.671-1.5-1.5-1.5h-2.408v-7.881c3.672-0.704,6.458-3.937,6.458-7.811
					c0-0.045-0.002-0.099-0.004-0.148c6.444-1.683,13.289-2.544,20.366-2.544c10.47,0,20.457,1.919,28.869,5.361v5.156h-3.151
					c-0.829,0-1.5,0.671-1.5,1.5s0.671,1.5,1.5,1.5h9.302c0.829,0,1.5-0.671,1.5-1.5s-0.671-1.5-1.5-1.5h-3.151v-3.833
					c4.24,2.018,7.994,4.452,11.102,7.251v15.893H50.12z"/>
				<path fill="#3F3679" d="M94.999,131.807c5.425,0,9.838-4.414,9.838-9.838s-4.414-9.838-9.838-9.838s-9.838,4.413-9.838,9.838
					S89.574,131.807,94.999,131.807z M94.999,115.131c3.771,0,6.838,3.067,6.838,6.838s-3.068,6.838-6.838,6.838
					s-6.838-3.068-6.838-6.838S91.228,115.131,94.999,115.131z"/>
				<path fill="#3F3679" d="M94.999,111.44c0.829,0,1.5-0.671,1.5-1.5v-3.285c0-0.829-0.671-1.5-1.5-1.5s-1.5,0.671-1.5,1.5v3.285
					C93.499,110.769,94.17,111.44,94.999,111.44z"/>
				<path fill="#3F3679" d="M94.999,132.498c-0.829,0-1.5,0.671-1.5,1.5v3.285c0,0.829,0.671,1.5,1.5,1.5s1.5-0.671,1.5-1.5v-3.285
					C96.499,133.169,95.827,132.498,94.999,132.498z"/>
				<path fill="#3F3679" d="M103.504,114.963c0.384,0,0.768-0.146,1.061-0.439l2.323-2.323c0.586-0.585,0.586-1.535,0-2.121
					c-0.585-0.586-1.535-0.586-2.121,0l-2.323,2.323c-0.586,0.585-0.586,1.535,0,2.121
					C102.736,114.817,103.12,114.963,103.504,114.963z"/>
				<path fill="#3F3679" d="M85.433,129.414l-2.323,2.323c-0.586,0.585-0.586,1.535,0,2.121c0.292,0.293,0.677,0.439,1.061,0.439
					s0.768-0.146,1.061-0.439l2.323-2.323c0.586-0.585,0.586-1.535,0-2.121C86.969,128.828,86.019,128.828,85.433,129.414z"/>
				<path fill="#3F3679" d="M105.527,121.969c0,0.829,0.671,1.5,1.5,1.5h3.286c0.829,0,1.5-0.671,1.5-1.5s-0.671-1.5-1.5-1.5h-3.286
					C106.198,120.469,105.527,121.14,105.527,121.969z"/>
				<path fill="#3F3679" d="M79.685,123.469h3.285c0.829,0,1.5-0.671,1.5-1.5s-0.671-1.5-1.5-1.5h-3.285c-0.829,0-1.5,0.671-1.5,1.5
					S78.856,123.469,79.685,123.469z"/>
				<path fill="#3F3679" d="M104.564,129.414c-0.586-0.586-1.536-0.586-2.121,0c-0.586,0.586-0.586,1.536,0,2.121l2.323,2.323
					c0.293,0.293,0.677,0.439,1.061,0.439s0.768-0.146,1.061-0.439c0.586-0.586,0.586-1.536,0-2.121L104.564,129.414z"/>
				<path fill="#3F3679" d="M85.433,114.524c0.293,0.293,0.677,0.439,1.061,0.439s0.768-0.146,1.061-0.439
					c0.586-0.586,0.586-1.536,0-2.121l-2.323-2.323c-0.586-0.586-1.536-0.586-2.121,0c-0.586,0.586-0.586,1.536,0,2.121
					L85.433,114.524z"/>
				<path fill="#3F3679" d="M154.959,134.655h52.421c0.829,0,1.5-0.671,1.5-1.5v-32.741c0-0.829-0.671-1.5-1.5-1.5h-52.421
					c-0.829,0-1.5,0.671-1.5,1.5v32.741C153.459,133.984,154.13,134.655,154.959,134.655z M156.459,101.914h49.421v29.741h-49.421
					V101.914z"/>
				<path fill="#3F3679" d="M154.959,176.776h52.421c0.829,0,1.5-0.671,1.5-1.5v-32.741c0-0.829-0.671-1.5-1.5-1.5h-52.421
					c-0.829,0-1.5,0.671-1.5,1.5v32.741C153.459,176.105,154.13,176.776,154.959,176.776z M156.459,144.035h49.421v29.741h-49.421
					V144.035z"/>
			</g>
		</g>
	</g>
</g>
</svg>
