<?xml version="1.0" encoding="utf-8"?>
<!-- Generator: Adobe Illustrator 27.9.0, SVG Export Plug-In . SVG Version: 6.00 Build 0)  -->
<svg version="1.1" id="Data_Exploration_Tools" xmlns="http://www.w3.org/2000/svg" xmlns:xlink="http://www.w3.org/1999/xlink"
	 x="0px" y="0px" width="820px" height="443.9px" viewBox="0 0 820 443.9" style="enable-background:new 0 0 820 443.9;"
	 xml:space="preserve">
<style type="text/css">
	.st0{display:none;}
	
		.st1{display:inline;fill:#FFFFFF;stroke:#333333;stroke-width:3.0893;stroke-linecap:round;stroke-linejoin:round;stroke-miterlimit:10;}
	.st2{display:inline;fill:#333333;}
	
		.st3{display:inline;fill:none;stroke:#333333;stroke-width:3.0892;stroke-linecap:round;stroke-linejoin:round;stroke-miterlimit:9.9997;}
	.st4{fill:#333333;}
	.st5{fill:#FFFFFF;}
	.st6{fill:url(#SVGID_1_);}
	.st7{fill:url(#SVGID_00000151501540593207565850000017376944022939312047_);}
	.st8{fill:url(#SVGID_00000154422530825631459420000017052684652052041882_);}
	.st9{fill:url(#SVGID_00000005234756374716078990000017178850769648566954_);}
	.st10{fill:url(#SVGID_00000143585842514603510060000013230981269749059982_);}
	.st11{fill:url(#SVGID_00000128486437811326276930000005705367864741771431_);}
</style>
<g class="st0">
	<path class="st1" d="M456,200.7c-13.8-10.1-29.7-14.1-48.6-10.1c-20,4.2-39.2,17.1-48,33.9c-10.2,19.6-3.4,43.3,23.2,45.6
		c31.4,2.8,59.1-26.6,47.6-49.7c-4.8-9.6-17.9-13.1-30.1-10c3.9-1.7,8.2-2.8,12.4-3.3c11.9-1.3,22.4,3.1,28.4,11.2
		c6.5,9,6.7,21.2,1.2,33.2c-6.6,14.4-21.6,24.1-37.7,28.7c-25.6,7.4-51.8-1-60.1-17.1c0,0-0.6-1.2-0.8-0.9c-0.2,0.3-0.2,1.5-0.2,1.5
		c4.9,18.8,19.9,33.2,46.7,33.1c36.5-0.1,68.6-27.5,69.5-59c0.7-24-20.4-39.9-45-37.6c-22,2.1-43.3,19.9-41.4,38.8
		c1.1,11.7,13.6,19.1,28.9,16.2c-5.1,2.1-10.5,3.2-15.5,3.1c-13-0.2-20.9-7.9-22.3-17.7c-1.2-8.5,2.5-17.7,8.7-25.4
		c6.4-7.9,15.9-13.5,25.9-17.1c17.6-6.4,41.5-6,56.9,2.6c0,0,0.4,0.2,0.5,0C456.2,200.9,456,200.7,456,200.7z"/>
	<circle class="st2" cx="468.1" cy="213.9" r="5.1"/>
	<circle class="st2" cx="432.7" cy="297.3" r="5.1"/>
	<circle class="st2" cx="457.9" cy="276" r="5.1"/>
	<circle class="st2" cx="469.6" cy="245.9" r="5.1"/>
	<circle class="st2" cx="339.4" cy="245.9" r="5.1"/>
	<circle class="st2" cx="347.9" cy="219" r="5.1"/>
	<circle class="st2" cx="366.7" cy="195.9" r="5.1"/>
	<circle class="st2" cx="392.1" cy="182.2" r="5.1"/>
	
		<ellipse transform="matrix(0.8942 -0.4476 0.4476 0.8942 -61.855 204.4019)" class="st3" cx="401.6" cy="233.1" rx="16.3" ry="14"/>
</g>
<circle class="st4" cx="407.7" cy="220.9" r="100.3"/>
<g>
	<circle class="st5" cx="535" cy="146.2" r="62"/>
	
		<linearGradient id="SVGID_1_" gradientUnits="userSpaceOnUse" x1="471.8" y1="297.75" x2="598.2" y2="297.75" gradientTransform="matrix(1 0 0 -1 0 444)">
		<stop  offset="0" style="stop-color:#00B4E5"/>
		<stop  offset="1" style="stop-color:#1CD0BB"/>
	</linearGradient>
	<path class="st6" d="M535,209.5c-34.9,0-63.2-28.4-63.2-63.2S500.1,83,535,83s63.2,28.4,63.2,63.2S569.8,209.5,535,209.5z
		 M535,85.5c-33.5,0-60.7,27.3-60.7,60.7c0,33.5,27.3,60.7,60.7,60.7s60.7-27.3,60.7-60.7C595.7,112.7,568.5,85.5,535,85.5z"/>
</g>
<g>
	<circle class="st5" cx="407.7" cy="72.1" r="62"/>
	
		<linearGradient id="SVGID_00000034057261817914393890000003033056924015729559_" gradientUnits="userSpaceOnUse" x1="344.5" y1="371.9" x2="470.9" y2="371.9" gradientTransform="matrix(1 0 0 -1 0 444)">
		<stop  offset="0" style="stop-color:#00B4E5"/>
		<stop  offset="1" style="stop-color:#1CD0BB"/>
	</linearGradient>
	<path style="fill:url(#SVGID_00000034057261817914393890000003033056924015729559_);" d="M407.7,135.3c-34.9,0-63.2-28.4-63.2-63.2
		s28.4-63.2,63.2-63.2c34.9,0,63.2,28.4,63.2,63.2S442.6,135.3,407.7,135.3z M407.7,11.3C374.2,11.3,347,38.6,347,72
		c0,33.5,27.3,60.7,60.7,60.7c33.5,0,60.7-27.3,60.7-60.7C468.4,38.6,441.2,11.3,407.7,11.3z"/>
</g>
<g>
	<circle class="st5" cx="407.7" cy="371" r="62"/>
	
		<linearGradient id="SVGID_00000142861425453925020920000007410364317875377281_" gradientUnits="userSpaceOnUse" x1="344.5" y1="73" x2="470.9" y2="73" gradientTransform="matrix(1 0 0 -1 0 444)">
		<stop  offset="0" style="stop-color:#00B4E5"/>
		<stop  offset="1" style="stop-color:#1CD0BB"/>
	</linearGradient>
	<path style="fill:url(#SVGID_00000142861425453925020920000007410364317875377281_);" d="M407.7,434.2c-34.9,0-63.2-28.4-63.2-63.2
		s28.4-63.2,63.2-63.2c34.9,0,63.2,28.4,63.2,63.2S442.6,434.2,407.7,434.2z M407.7,310.2c-33.5,0-60.7,27.3-60.7,60.7
		c0,33.5,27.3,60.7,60.7,60.7c33.5,0,60.7-27.3,60.7-60.7C468.4,337.5,441.2,310.2,407.7,310.2z"/>
</g>
<g>
	<circle class="st5" cx="535" cy="295.7" r="62"/>
	
		<linearGradient id="SVGID_00000004509904698949639610000014027213796394577539_" gradientUnits="userSpaceOnUse" x1="471.8" y1="148.3" x2="598.2" y2="148.3" gradientTransform="matrix(1 0 0 -1 0 444)">
		<stop  offset="0" style="stop-color:#00B4E5"/>
		<stop  offset="1" style="stop-color:#1CD0BB"/>
	</linearGradient>
	<path style="fill:url(#SVGID_00000004509904698949639610000014027213796394577539_);" d="M535,358.9c-34.9,0-63.2-28.4-63.2-63.2
		s28.4-63.2,63.2-63.2s63.2,28.4,63.2,63.2S569.8,358.9,535,358.9z M535,235c-33.5,0-60.7,27.3-60.7,60.7
		c0,33.5,27.3,60.7,60.7,60.7s60.7-27.3,60.7-60.7C595.7,262.2,568.5,235,535,235z"/>
</g>
<g>
	<circle class="st5" cx="280.3" cy="146.2" r="62"/>
	
		<linearGradient id="SVGID_00000072993783381459244210000000358760959396260756_" gradientUnits="userSpaceOnUse" x1="217.1" y1="297.75" x2="343.5" y2="297.75" gradientTransform="matrix(1 0 0 -1 0 444)">
		<stop  offset="0" style="stop-color:#00B4E5"/>
		<stop  offset="1" style="stop-color:#1CD0BB"/>
	</linearGradient>
	<path style="fill:url(#SVGID_00000072993783381459244210000000358760959396260756_);" d="M280.3,209.5c-34.9,0-63.2-28.4-63.2-63.2
		S245.5,83,280.3,83s63.2,28.4,63.2,63.2S315.2,209.5,280.3,209.5z M280.3,85.5c-33.5,0-60.7,27.3-60.7,60.7
		c0,33.5,27.3,60.7,60.7,60.7c33.5,0,60.7-27.3,60.7-60.7C341.1,112.7,313.8,85.5,280.3,85.5z"/>
</g>
<g>
	<circle class="st5" cx="280.3" cy="295.7" r="62"/>
	
		<linearGradient id="SVGID_00000133519957139730976720000002552052893191116735_" gradientUnits="userSpaceOnUse" x1="217.1" y1="148.3" x2="343.5" y2="148.3" gradientTransform="matrix(1 0 0 -1 0 444)">
		<stop  offset="0" style="stop-color:#00B4E5"/>
		<stop  offset="1" style="stop-color:#1CD0BB"/>
	</linearGradient>
	<path style="fill:url(#SVGID_00000133519957139730976720000002552052893191116735_);" d="M280.3,358.9c-34.9,0-63.2-28.4-63.2-63.2
		s28.4-63.2,63.2-63.2s63.2,28.4,63.2,63.2S315.2,358.9,280.3,358.9z M280.3,235c-33.5,0-60.7,27.3-60.7,60.7
		c0,33.5,27.3,60.7,60.7,60.7c33.5,0,60.7-27.3,60.7-60.7C341.1,262.2,313.8,235,280.3,235z"/>
</g>
<g>
	<g>
		<path class="st4" d="M407.6,401.1c-15,0-28-11.4-30.2-26.5l2-0.3c2.1,14.1,14.2,24.7,28.3,24.7c14,0,25.9-10.2,28.2-24.2l2,0.3
			C435.2,390.2,422.5,401.1,407.6,401.1z"/>
		<path class="st4" d="M435.9,366.6c-1.7-14.6-13.9-25.7-28.4-25.7c-14.2,0-26.3,10.8-28.3,25l-2-0.3c2.1-15.2,15.1-26.7,30.3-26.7
			c15.5,0,28.6,11.8,30.4,27.4L435.9,366.6z"/>
	</g>
	<g>
		<path class="st4" d="M393.4,374.7c-0.1-1.5-0.2-3.1-0.2-4.7c0-17.4,6.3-31,14.3-31c5.6,0,10.5,6.7,12.9,17.5l-2,0.4
			c-2.1-9.7-6.4-15.9-10.9-15.9c-6.6,0-12.3,13.3-12.3,29c0,1.5,0.1,3,0.2,4.5L393.4,374.7z"/>
		<path class="st4" d="M407.6,401.1c-5.5,0-10.5-6.6-12.8-17.3l2-0.4c2.1,9.6,6.4,15.8,10.9,15.8c6.6,0,12.3-13.3,12.3-29
			c0-1.4,0-2.8-0.1-4.2l2-0.1c0.1,1.4,0.1,2.9,0.1,4.3C421.8,387.5,415.6,401.1,407.6,401.1z"/>
	</g>
	<path class="st4" d="M380.7,366.3l-1.3-1.6c3.1-2.5,8.5-4.5,15.1-5.6l0.3,2C388.5,362.2,383.5,364.1,380.7,366.3z"/>
	<path class="st4" d="M389.6,379.9c-4.2-1.1-7.6-2.6-9.9-4.3l1.2-1.6c2.1,1.6,5.2,2.9,9.2,4L389.6,379.9z"/>
	<path class="st4" d="M407.6,382c-2.8,0-5.6-0.1-8.3-0.4l0.2-2c2.6,0.3,5.3,0.4,8.1,0.4c11.4,0,21.9-2.4,26.7-6.1l1.2,1.6
		C430.2,379.5,419.5,382,407.6,382z"/>
	<path class="st4" d="M434.9,366.7c-2.1-1.9-6-3.7-10.9-4.8l0.5-1.9c5.3,1.3,9.4,3.1,11.8,5.3L434.9,366.7z"/>
	<path class="st4" d="M394.9,361.1l-0.3-2c4.1-0.7,8.5-1.1,13-1.1c2.4,0,4.9,0.1,7.2,0.3l-0.2,2c-2.3-0.2-4.7-0.3-7.1-0.3
		C403.1,360.1,398.8,360.5,394.9,361.1z"/>
	<path class="st4" d="M378.4,376.1c-3.2,0-5.8-2.6-5.8-5.8s2.6-5.8,5.8-5.8s5.8,2.6,5.8,5.8S381.6,376.1,378.4,376.1z M378.4,366.5
		c-2.1,0-3.8,1.7-3.8,3.8c0,2.1,1.7,3.8,3.8,3.8c2.1,0,3.8-1.7,3.8-3.8C382.2,368.2,380.5,366.5,378.4,366.5z"/>
	<path class="st4" d="M394.7,385.1c-3.2,0-5.8-2.6-5.8-5.8s2.6-5.8,5.8-5.8s5.8,2.6,5.8,5.8S397.9,385.1,394.7,385.1z M394.7,375.6
		c-2.1,0-3.8,1.7-3.8,3.8c0,2.1,1.7,3.8,3.8,3.8s3.8-1.7,3.8-3.8C398.5,377.3,396.8,375.6,394.7,375.6z"/>
	<path class="st4" d="M419.4,366.6c-3.2,0-5.8-2.6-5.8-5.8s2.6-5.8,5.8-5.8s5.8,2.6,5.8,5.8S422.6,366.6,419.4,366.6z M419.4,357.1
		c-2.1,0-3.8,1.7-3.8,3.8c0,2.1,1.7,3.8,3.8,3.8s3.8-1.7,3.8-3.8C423.2,358.8,421.5,357.1,419.4,357.1z"/>
	<path class="st4" d="M437,376.5c-3.2,0-5.8-2.6-5.8-5.8s2.6-5.8,5.8-5.8s5.8,2.6,5.8,5.8S440.2,376.5,437,376.5z M437,367
		c-2.1,0-3.8,1.7-3.8,3.8c0,2.1,1.7,3.8,3.8,3.8c2.1,0,3.8-1.7,3.8-3.8S439.1,367,437,367z"/>
</g>
<g>
	<g>
		<path class="st4" d="M309,144.8c-0.2-7.6-3.3-14.7-8.8-20s-12.8-8.1-20.4-7.9c-13.9,0.3-26.2,10.9-27.3,23.6l-2-0.2
			c1.3-14,14.1-25.1,29.3-25.4c16.9-0.3,30.8,13.1,31.2,29.9H309z"/>
		<polygon class="st4" points="310.3,150.8 307.8,146.8 305.2,142.7 310,142.6 314.8,142.4 312.5,146.6 		"/>
		<path class="st4" d="M281.1,175.8c-7.3,0-14.3-2.6-19.9-7.4c-6.2-5.3-9.9-12.8-10.5-20.9l2-0.1c0.5,7.6,4,14.5,9.8,19.5
			s13.1,7.4,20.7,6.9c12.5-0.9,22.9-9.7,25.7-22l1.9,0.5c-3.1,13.1-14.1,22.5-27.6,23.5C282.6,175.8,281.8,175.8,281.1,175.8z"/>
		<polygon class="st4" points="251.8,142.4 254,146.6 256.3,150.8 251.5,150.7 246.8,150.6 249.3,146.5 		"/>
	</g>
	<g>
		<g>
			<path class="st4" d="M280.6,140c-6.9,0-14.3-1.5-14.3-4.7s7.4-4.7,14.3-4.7s14.3,1.5,14.3,4.7S287.5,140,280.6,140z M280.6,132.6
				c-8,0-12.3,1.9-12.3,2.7s4.3,2.7,12.3,2.7s12.3-1.9,12.3-2.7S288.6,132.6,280.6,132.6z"/>
			<path class="st4" d="M280.6,146.6c-6.9,0-14.3-1.5-14.3-4.7h2c0,0.8,4.3,2.7,12.3,2.7s12.3-1.9,12.3-2.7h2
				C294.9,145.2,287.5,146.6,280.6,146.6z"/>
			<path class="st4" d="M280.6,153.3c-6.9,0-14.3-1.5-14.3-4.7h2c0,0.8,4.3,2.7,12.3,2.7s12.3-1.9,12.3-2.7h2
				C294.9,151.8,287.5,153.3,280.6,153.3z"/>
			<path class="st4" d="M280.6,160c-6.9,0-14.3-1.5-14.3-4.7h2c0,0.8,4.3,2.7,12.3,2.7s12.3-1.9,12.3-2.7h2
				C294.9,158.5,287.5,160,280.6,160z"/>
			<rect x="266.4" y="135.4" class="st4" width="2" height="20.3"/>
			<rect x="292.8" y="135.4" class="st4" width="2" height="20.3"/>
		</g>
	</g>
</g>
<g>
	<path class="st4" d="M515.7,302.3c-6.4,0-13.3-1.4-13.3-4.4s6.9-4.4,13.3-4.4c6.4,0,13.3,1.4,13.3,4.4S522.1,302.3,515.7,302.3z
		 M515.7,295.6c-7.5,0-11.2,1.7-11.3,2.4c0.1,0.6,3.8,2.4,11.3,2.4c7.4,0,11.1-1.7,11.3-2.4C526.8,297.3,523.1,295.6,515.7,295.6z"
		/>
	<path class="st4" d="M515.7,308.5c-6.4,0-13.3-1.4-13.3-4.4h2c0.1,0.7,3.8,2.4,11.3,2.4s11.2-1.7,11.3-2.4h2
		C529,307.2,522.1,308.5,515.7,308.5z"/>
	<path class="st4" d="M515.7,314.7c-6.4,0-13.3-1.4-13.3-4.4h2c0.1,0.7,3.8,2.4,11.3,2.4s11.2-1.7,11.3-2.4h2
		C529,313.3,522.1,314.7,515.7,314.7z"/>
	<path class="st4" d="M515.7,320.9c-6.4,0-13.3-1.4-13.3-4.4h2c0.1,0.7,3.8,2.4,11.3,2.4s11.2-1.7,11.3-2.4h2
		C529,319.5,522.1,320.9,515.7,320.9z"/>
	<rect x="502.4" y="298" class="st4" width="2" height="18.8"/>
	<rect x="526.9" y="298" class="st4" width="2" height="18.8"/>
	<path class="st4" d="M553.7,302.3c-6.4,0-13.3-1.4-13.3-4.4s6.9-4.4,13.3-4.4s13.3,1.4,13.3,4.4S560.1,302.3,553.7,302.3z
		 M553.7,295.6c-7.5,0-11.2,1.7-11.3,2.4c0.1,0.6,3.8,2.4,11.3,2.4c7.4,0,11.1-1.7,11.3-2.4C564.8,297.3,561.1,295.6,553.7,295.6z"
		/>
	<path class="st4" d="M553.7,308.5c-6.4,0-13.3-1.4-13.3-4.4h2c0.1,0.7,3.8,2.4,11.3,2.4s11.2-1.7,11.3-2.4h2
		C567,307.2,560.1,308.5,553.7,308.5z"/>
	<path class="st4" d="M553.7,314.7c-6.4,0-13.3-1.4-13.3-4.4h2c0.1,0.7,3.8,2.4,11.3,2.4s11.2-1.7,11.3-2.4h2
		C567,313.3,560.1,314.7,553.7,314.7z"/>
	<path class="st4" d="M553.7,320.9c-6.4,0-13.3-1.4-13.3-4.4h2c0.1,0.7,3.8,2.4,11.3,2.4s11.2-1.7,11.3-2.4h2
		C567,319.5,560.1,320.9,553.7,320.9z"/>
	<rect x="540.4" y="298" class="st4" width="2" height="18.8"/>
	<rect x="564.9" y="298" class="st4" width="2" height="18.8"/>
	<path class="st4" d="M534.7,269.9c-6.4,0-13.3-1.4-13.3-4.4s6.9-4.4,13.3-4.4s13.3,1.4,13.3,4.4S541.1,269.9,534.7,269.9z
		 M534.7,263.1c-7.5,0-11.2,1.7-11.3,2.4c0.1,0.6,3.8,2.4,11.3,2.4c7.4,0,11.1-1.7,11.3-2.4C545.8,264.8,542.1,263.1,534.7,263.1z"
		/>
	<path class="st4" d="M534.7,276.1c-6.4,0-13.3-1.4-13.3-4.4h2c0.1,0.7,3.8,2.4,11.3,2.4s11.2-1.7,11.3-2.4h2
		C548,274.7,541.1,276.1,534.7,276.1z"/>
	<path class="st4" d="M534.7,282.3c-6.4,0-13.3-1.4-13.3-4.4h2c0.1,0.7,3.8,2.4,11.3,2.4s11.2-1.7,11.3-2.4h2
		C548,280.9,541.1,282.3,534.7,282.3z"/>
	<path class="st4" d="M534.7,288.5c-6.4,0-13.3-1.4-13.3-4.4h2c0.1,0.7,3.8,2.4,11.3,2.4s11.2-1.7,11.3-2.4h2
		C548,287.1,541.1,288.5,534.7,288.5z"/>
	<rect x="521.4" y="265.6" class="st4" width="2" height="18.8"/>
	<rect x="545.9" y="265.6" class="st4" width="2" height="18.8"/>
	<rect x="528" y="304.1" class="st4" width="13.4" height="2"/>
	
		<rect x="515.5" y="289.2" transform="matrix(0.7071 -0.7071 0.7071 0.7071 -52.551 453.564)" class="st4" width="11.5" height="2"/>
	
		<rect x="547.2" y="284.5" transform="matrix(0.7071 -0.7071 0.7071 0.7071 -44.6647 472.65)" class="st4" width="2" height="11.5"/>
</g>
<g>
	<path class="st4" d="M516.7,158v9.9h-6.2V158H516.7 M517.7,156h-8.2c-0.6,0-1,0.4-1,1v11.9c0,0.6,0.4,1,1,1h8.2c0.6,0,1-0.4,1-1
		V157C518.7,156.4,518.2,156,517.7,156L517.7,156z"/>
	<path class="st4" d="M547.1,153.1v14.8h-6.2v-14.8H547.1 M548.1,151.1h-8.2c-0.6,0-1,0.4-1,1v16.8c0,0.6,0.4,1,1,1h8.2
		c0.6,0,1-0.4,1-1v-16.8C549.1,151.5,548.7,151.1,548.1,151.1L548.1,151.1z"/>
	<path class="st4" d="M562.4,142.7v25.2h-6.2v-25.2H562.4 M563.4,140.7h-8.2c-0.6,0-1,0.4-1,1v27.2c0,0.6,0.4,1,1,1h8.2
		c0.6,0,1-0.4,1-1v-27.2C564.4,141.1,563.9,140.7,563.4,140.7L563.4,140.7z"/>
	<path class="st4" d="M531.9,147.5v20.4h-6.2v-20.4H531.9 M532.9,145.5h-8.2c-0.6,0-1,0.4-1,1v22.4c0,0.6,0.4,1,1,1h8.2
		c0.6,0,1-0.4,1-1v-22.4C533.9,145.9,533.4,145.5,532.9,145.5L532.9,145.5z"/>
	<rect x="514.7" y="133" transform="matrix(0.7655 -0.6434 0.6434 0.7655 36.0198 366.9291)" class="st4" width="13.5" height="2"/>
	
		<rect x="535.8" y="127.8" transform="matrix(0.5451 -0.8384 0.8384 0.5451 132.8152 510.4838)" class="st4" width="2" height="10.2"/>
	<rect x="544.8" y="127" transform="matrix(0.6434 -0.7655 0.7655 0.6434 98.7878 468.1352)" class="st4" width="14.2" height="2"/>
	<path class="st4" d="M513.5,137.7c1.7,0,3.2,1.4,3.2,3.2c0,1.7-1.4,3.2-3.2,3.2c-1.7,0-3.2-1.4-3.2-3.2
		C510.4,139.1,511.8,137.7,513.5,137.7 M513.5,135.7c-2.9,0-5.2,2.3-5.2,5.2s2.3,5.2,5.2,5.2s5.2-2.3,5.2-5.2
		S516.4,135.7,513.5,135.7L513.5,135.7z"/>
	<path class="st4" d="M545.1,133.7c1.7,0,3.2,1.4,3.2,3.2c0,1.7-1.4,3.2-3.2,3.2c-1.7,0-3.2-1.4-3.2-3.2
		C541.9,135.2,543.3,133.7,545.1,133.7 M545.1,131.7c-2.9,0-5.2,2.3-5.2,5.2s2.3,5.2,5.2,5.2s5.2-2.3,5.2-5.2
		S547.9,131.7,545.1,131.7L545.1,131.7z"/>
	<path class="st4" d="M559.3,116.4c1.7,0,3.2,1.4,3.2,3.2c0,1.7-1.4,3.2-3.2,3.2c-1.7,0-3.2-1.4-3.2-3.2S557.5,116.4,559.3,116.4
		 M559.3,114.4c-2.9,0-5.2,2.3-5.2,5.2c0,2.9,2.3,5.2,5.2,5.2s5.2-2.3,5.2-5.2C564.4,116.7,562.1,114.4,559.3,114.4L559.3,114.4z"/>
	<path class="st4" d="M529.4,124.6c1.7,0,3.2,1.4,3.2,3.2c0,1.7-1.4,3.2-3.2,3.2c-1.7,0-3.2-1.4-3.2-3.2S527.7,124.6,529.4,124.6
		 M529.4,122.6c-2.9,0-5.2,2.3-5.2,5.2c0,2.9,2.3,5.2,5.2,5.2s5.2-2.3,5.2-5.2C534.6,124.9,532.3,122.6,529.4,122.6L529.4,122.6z"/>
</g>
<g>
	<path class="st4" d="M405.6,74.1c-0.9,0-1.8-0.1-2.6-0.4c-1.7-0.6-3.1-1.8-3.8-3.3c-1.7-3.5,0.2-7.9,4.1-9.8c2.1-1,4.4-1.2,6.5-0.5
		c1.7,0.6,3.1,1.8,3.8,3.3c1.7,3.5-0.2,7.9-4.1,9.8C408.3,73.8,407,74.1,405.6,74.1z M407.3,61.4c-1,0-2.1,0.2-3.1,0.7
		c-3.1,1.5-4.6,4.8-3.3,7.4c0.5,1.1,1.5,2,2.8,2.4c1.6,0.5,3.4,0.4,5.1-0.4c3.1-1.5,4.6-4.8,3.3-7.4c-0.5-1.1-1.5-2-2.8-2.4
		C408.6,61.5,408,61.4,407.3,61.4z"/>
	<path class="st4" d="M401.3,95.7c-11,0-18.7-5.5-21.2-15.2c0-0.1,0-0.2,0-0.2c0-0.7,0.1-1,0.2-1.1c0.2-0.3,0.5-0.5,0.8-0.5
		c0.6,0,0.9,0.5,1.1,0.9c3.6,6.9,14.9,10,25.2,7c7.6-2.2,13.4-6.6,15.9-12.1c2.3-5.1,2.2-10-0.4-13.6c-1.9-2.6-5-4.2-8.5-4.6
		c2.4,0.9,4.3,2.4,5.4,4.5c2.1,4.2,1.5,9.1-1.5,13.6c-4.3,6.3-12.4,10.1-20.2,9.4c-5.2-0.5-9.2-2.8-11.3-6.7
		c-2.3-4.2-2.1-9.6,0.5-14.6c3.8-7.3,12.3-13.3,21.6-15.3c8.2-1.7,15.4-0.2,22,4.6c0.1,0,0.1,0.1,0.2,0.2c0.3,0.4,0.3,0.9,0.1,1.2
		c-0.2,0.3-0.7,0.5-1.3,0.3h-0.1c-6.1-3.4-16.3-3.9-24.1-1.1c-3.3,1.2-7.9,3.4-10.9,7.2c-2.8,3.4-4.1,7.2-3.6,10.4
		c0.6,4.1,3.7,6.7,8.3,7c-1-0.4-1.9-0.9-2.8-1.5c-2-1.5-3.2-3.6-3.4-6c-0.3-3.4,0.9-6.8,3.4-9.9c3.6-4.4,9.6-7.5,15.5-8.1
		s11.6,1.2,15.5,4.9c3.4,3.2,5.2,7.6,5.1,12.4C432.2,83.2,417.6,95.6,401.3,95.7L401.3,95.7z M383.2,83.9c3.1,6.4,9.5,10,18,10h0.1
		c15.3,0,29.1-11.7,29.5-24.9c0.1-4.3-1.5-8.2-4.5-11.1c-3.5-3.3-8.7-4.9-14.1-4.4c-5.5,0.5-10.9,3.4-14.3,7.4
		c-2.2,2.7-3.3,5.7-3,8.6c0.2,1.9,1.1,3.5,2.7,4.7c2.2,1.7,5.5,2.2,8.9,1.6c0.5-0.1,0.9,0.2,1,0.6s-0.1,0.9-0.5,1.1
		c-2.3,1-4.8,1.5-7.1,1.4c-5.7-0.1-9.9-3.4-10.6-8.5c-0.5-3.8,0.9-7.9,4-11.8c3.3-4.1,8.2-6.5,11.7-7.7c4.8-1.7,10.3-2.3,15.4-1.8
		c-3.5-0.8-7.1-0.7-11.1,0.1c-8.8,1.9-16.8,7.5-20.3,14.3c-2.3,4.4-2.5,9.2-0.5,12.9c1.8,3.3,5.3,5.3,9.9,5.7
		c8.3,0.7,15.3-3.8,18.6-8.6c2.7-3.9,3.2-8.2,1.4-11.8c-1.8-3.6-6.9-5.2-12.1-3.9c-0.5,0.1-0.9-0.1-1.1-0.6
		c-0.2-0.4,0.1-0.9,0.5-1.1c1.8-0.8,3.8-1.3,5.7-1.5c5.4-0.6,10.4,1.4,13.2,5.3c3,4.1,3.2,9.7,0.6,15.4c-2.7,6-8.9,10.7-17.1,13
		C398.6,91,388.6,89,383.2,83.9z M381.9,80L381.9,80L381.9,80z"/>
	<circle class="st4" cx="435.5" cy="58.5" r="2.2"/>
	<circle class="st4" cx="420.1" cy="94.9" r="2.2"/>
	<circle class="st4" cx="431.1" cy="85.6" r="2.2"/>
	<circle class="st4" cx="436.2" cy="72.4" r="2.2"/>
	<circle class="st4" cx="379.3" cy="72.4" r="2.2"/>
	<circle class="st4" cx="383" cy="60.7" r="2.2"/>
	<circle class="st4" cx="391.2" cy="50.6" r="2.2"/>
	<circle class="st4" cx="402.3" cy="44.6" r="2.2"/>
</g>
<g>
	<path class="st4" d="M258.1,304.7c-4.2,0-7.6-3.4-7.6-7.6s3.4-7.6,7.6-7.6s7.6,3.4,7.6,7.6S262.3,304.7,258.1,304.7z M258.1,291.6
		c-3.1,0-5.6,2.5-5.6,5.6s2.5,5.6,5.6,5.6s5.6-2.5,5.6-5.6S261.2,291.6,258.1,291.6z"/>
	<path class="st4" d="M302.3,282.5c-4.2,0-7.6-3.4-7.6-7.6s3.4-7.6,7.6-7.6s7.6,3.4,7.6,7.6S306.4,282.5,302.3,282.5z M302.3,269.3
		c-3.1,0-5.6,2.5-5.6,5.6s2.5,5.6,5.6,5.6s5.6-2.5,5.6-5.6S305.3,269.3,302.3,269.3z"/>
	<path class="st4" d="M263.4,326.2h-10.6c-1.1,0-2-0.9-2-2v-10.6c0-1.1,0.9-2,2-2h10.6c1.1,0,2,0.9,2,2v10.6
		C265.4,325.3,264.5,326.2,263.4,326.2z M252.8,313.6v10.6h10.6v-10.6H252.8z"/>
	<path class="st4" d="M285.5,282.8h-10.6c-1.1,0-2-0.9-2-2v-10.6c0-1.1,0.9-2,2-2h10.6c1.1,0,2,0.9,2,2v10.6
		C287.5,281.9,286.6,282.8,285.5,282.8z M274.9,270.2v10.6h10.6v-10.6H274.9z"/>
	<path class="st4" d="M263.4,282.8h-10.6c-1.1,0-2-0.9-2-2v-10.6c0-1.1,0.9-2,2-2h10.6c1.1,0,2,0.9,2,2v10.6
		C265.4,281.9,264.5,282.8,263.4,282.8z M252.8,270.2v10.6h10.6v-10.6H252.8z"/>
	<path class="st4" d="M285.5,326.2h-10.6c-1.1,0-2-0.9-2-2v-10.6c0-1.1,0.9-2,2-2h10.6c1.1,0,2,0.9,2,2v10.6
		C287.5,325.3,286.6,326.2,285.5,326.2z M274.9,313.6v10.6h10.6v-10.6H274.9z"/>
	<path class="st4" d="M302.3,326.2c-4.2,0-7.6-3.4-7.6-7.6s3.4-7.6,7.6-7.6s7.6,3.4,7.6,7.6C309.8,322.8,306.4,326.2,302.3,326.2z
		 M302.3,313.1c-3.1,0-5.6,2.5-5.6,5.6s2.5,5.6,5.6,5.6s5.6-2.5,5.6-5.6S305.3,313.1,302.3,313.1z"/>
	<rect x="257.1" y="312.6" class="st4" width="2" height="12.6"/>
	<path class="st4" d="M285.5,304.4h-10.6c-1.1,0-2-0.9-2-2v-10.6c0-1.1,0.9-2,2-2h10.6c1.1,0,2,0.9,2,2v10.6
		C287.5,303.5,286.6,304.4,285.5,304.4z M274.9,291.8v10.6h10.6v-10.6H274.9z"/>
	<path class="st4" d="M307.5,303.8H297c-1.1,0-2-0.9-2-2v-10.6c0-1.1,0.9-2,2-2h10.6c1.1,0,2,0.9,2,2v10.6
		C309.5,302.9,308.6,303.8,307.5,303.8z M297,291.3v10.6h10.6v-10.6H297z"/>
	<path class="st4" d="M286.1,303.8c-0.3,0-0.5-0.1-0.7-0.3l-11.6-11.6c-0.4-0.4-0.4-1,0-1.4s1-0.4,1.4,0l11.6,11.6
		c0.4,0.4,0.4,1,0,1.4C286.6,303.7,286.4,303.8,286.1,303.8z"/>
	<rect x="251.8" y="274.2" class="st4" width="12.1" height="2"/>
</g>
<g>
	<g>
		<path class="st5" d="M384.6,201.4h4.7c4,0,6.7,2.7,6.7,6.3v0c0,3.5-2.7,6.3-6.7,6.3h-4.7V201.4z M386.8,203.4v8.6h2.5
			c2.6,0,4.4-1.8,4.4-4.2v0c0-2.5-1.7-4.3-4.4-4.3H386.8z"/>
		<path class="st5" d="M402.3,201.3h2.1l5.5,12.7h-2.3l-1.3-3h-6l-1.3,3h-2.3L402.3,201.3z M405.4,209l-2.2-5l-2.2,5H405.4z"/>
		<path class="st5" d="M413.5,203.4h-4v-2.1h10.2v2.1h-4V214h-2.2V203.4z"/>
		<path class="st5" d="M424.9,201.3h2.1l5.5,12.7h-2.3l-1.3-3h-6l-1.3,3h-2.3L424.9,201.3z M428.1,209l-2.2-5l-2.2,5H428.1z"/>
		<path class="st5" d="M341.9,223h9.3v2h-7.1v3.3h6.3v2h-6.3v3.4h7.2v2h-9.4V223z"/>
		<path class="st5" d="M364.6,223l-4.4,6.2l4.6,6.4h-2.6l-3.3-4.8l-3.3,4.8H353l4.6-6.4l-4.4-6.2h2.6l3.1,4.6l3.2-4.6H364.6z"/>
		<path class="st5" d="M367.1,223h5c3,0,4.8,1.7,4.8,4.2v0c0,2.8-2.3,4.3-5,4.3h-2.5v4.1h-2.2V223z M371.9,229.6
			c1.7,0,2.7-0.9,2.7-2.3v0c0-1.5-1.1-2.3-2.7-2.3h-2.6v4.5H371.9z"/>
		<path class="st5" d="M379.1,223h2.2v10.6h6.6v2h-8.8V223z"/>
		<path class="st5" d="M389,229.3L389,229.3c0-3.6,2.7-6.6,6.6-6.6s6.6,2.9,6.6,6.5v0c0,3.5-2.7,6.5-6.6,6.5
			C391.7,235.8,389,232.9,389,229.3z M399.8,229.3L399.8,229.3c0-2.5-1.8-4.5-4.3-4.5c-2.5,0-4.2,2-4.2,4.4v0c0,2.4,1.8,4.5,4.3,4.5
			C398.1,233.8,399.8,231.8,399.8,229.3z"/>
		<path class="st5" d="M404.8,223h5.6c1.6,0,2.8,0.5,3.6,1.3c0.7,0.7,1,1.6,1,2.7v0c0,2.1-1.2,3.3-3,3.8l3.4,4.8h-2.6l-3.1-4.4H407
			v4.4h-2.2V223z M410.3,229.2c1.6,0,2.6-0.8,2.6-2.1v0c0-1.4-1-2.1-2.6-2.1H407v4.2H410.3z"/>
		<path class="st5" d="M422.3,222.9h2.1l5.5,12.7h-2.3l-1.3-3h-6l-1.3,3h-2.3L422.3,222.9z M425.5,230.6l-2.2-5l-2.2,5H425.5z"/>
		<path class="st5" d="M433.5,225h-4V223h10.2v2.1h-4v10.6h-2.2V225z"/>
		<path class="st5" d="M442.2,223h2.2v12.6h-2.2V223z"/>
		<path class="st5" d="M447.3,229.3L447.3,229.3c0-3.6,2.7-6.6,6.6-6.6s6.6,2.9,6.6,6.5v0c0,3.5-2.7,6.5-6.6,6.5
			C450,235.8,447.3,232.9,447.3,229.3z M458.1,229.3L458.1,229.3c0-2.5-1.8-4.5-4.3-4.5c-2.5,0-4.2,2-4.2,4.4v0
			c0,2.4,1.8,4.5,4.3,4.5C456.4,233.8,458.1,231.8,458.1,229.3z"/>
		<path class="st5" d="M463.1,223h2.1l6.8,8.7V223h2.2v12.6h-1.9l-7-9v9h-2.2V223z"/>
	</g>
</g>
</svg>
